<?xml version="1.0" encoding="UTF-8" standalone="no"?>
<!DOCTYPE svg PUBLIC "-//W3C//DTD SVG 20010904//EN"
              "http://www.w3.org/TR/2001/REC-SVG-20010904/DTD/svg10.dtd">

<svg xmlns="http://www.w3.org/2000/svg"
     width="8.88889in" height="12.0556in"
     viewBox="0 0 640 868">
  <path id="Seleção"
        fill="none" stroke="black" stroke-width="1"
        d="M 320.00,47.00
           C 320.00,47.00 321.00,51.00 321.00,51.00
             321.00,51.00 324.00,52.00 324.00,52.00
             317.72,58.28 307.29,65.27 308.06,75.00
             308.54,81.05 312.05,81.73 312.17,86.00
             312.27,89.34 309.09,94.18 308.60,97.00
             308.14,99.67 309.27,103.40 310.00,106.00
             300.51,108.79 300.61,114.46 297.72,122.00
             296.37,125.52 294.50,129.35 299.00,131.00
             295.36,134.64 286.82,141.54 287.19,146.91
             287.53,151.94 294.44,153.62 297.18,157.26
             298.31,158.76 299.87,168.21 299.94,170.42
             299.94,170.42 298.33,187.00 298.33,187.00
             297.27,189.65 294.02,193.22 293.86,196.00
             293.67,199.21 296.64,201.06 297.06,204.00
             297.47,206.81 295.55,208.93 294.00,211.00
             296.33,219.51 285.45,229.29 296.00,233.00
             294.98,237.96 296.10,240.37 301.00,242.00
             299.40,248.18 294.74,257.20 302.00,262.00
             297.63,270.35 302.06,269.24 300.65,274.00
             300.06,275.97 297.99,277.98 297.01,280.00
             295.03,284.13 295.88,288.79 297.01,293.00
             297.01,293.00 298.00,293.00 298.00,293.00
             298.00,293.00 300.00,291.00 300.00,291.00
             299.30,296.70 298.69,298.62 303.00,303.00
             301.24,306.94 301.94,306.06 301.74,310.00
             301.45,315.94 299.06,314.50 299.00,324.00
             299.00,324.00 299.00,352.00 299.00,352.00
             298.98,363.68 297.58,361.19 296.40,369.00
             296.40,369.00 295.00,389.00 295.00,389.00
             295.00,389.00 295.00,413.00 295.00,413.00
             295.00,413.00 298.00,440.00 298.00,440.00
             297.96,446.20 299.03,455.91 300.25,462.00
             300.25,462.00 302.00,469.00 302.00,469.00
             302.00,469.00 302.00,477.00 302.00,477.00
             302.00,477.00 302.00,516.00 302.00,516.00
             301.98,527.04 300.12,524.30 300.00,533.00
             300.00,533.00 300.00,549.00 300.00,549.00
             300.00,549.00 300.91,561.00 300.91,561.00
             300.91,561.00 302.17,581.00 302.17,581.00
             302.17,581.00 304.08,596.00 304.08,596.00
             304.08,596.00 304.08,613.00 304.08,613.00
             304.08,613.00 304.77,619.00 304.77,619.00
             304.77,619.00 304.77,626.00 304.77,626.00
             304.77,626.00 306.55,633.00 306.55,633.00
             306.55,633.00 307.26,640.00 307.26,640.00
             307.26,640.00 309.56,649.00 309.56,649.00
             309.56,649.00 311.47,667.00 311.47,667.00
             311.47,667.00 313.92,676.00 313.92,676.00
             313.92,676.00 313.92,684.00 313.92,684.00
             313.92,684.00 315.17,697.00 315.17,697.00
             315.17,697.00 318.05,721.00 318.05,721.00
             318.05,721.00 318.05,738.00 318.05,738.00
             318.05,738.00 319.69,745.00 319.69,745.00
             322.31,759.03 323.17,760.34 323.00,775.00
             323.00,775.00 322.17,790.00 322.17,790.00
             322.90,796.59 325.70,798.85 326.75,804.00
             326.75,804.00 328.30,817.00 328.30,817.00
             328.30,817.00 329.77,824.00 329.77,824.00
             329.77,824.00 329.77,831.00 329.77,831.00
             331.05,838.47 331.58,847.26 340.96,847.93
             340.96,847.93 347.00,847.93 347.00,847.93
             347.00,847.93 346.18,834.00 346.18,834.00
             346.41,830.78 347.28,828.47 346.78,825.00
             346.78,825.00 345.17,819.42 345.17,819.42
             345.17,819.42 344.48,813.00 344.48,813.00
             342.91,804.93 340.83,800.48 341.21,792.00
             341.21,792.00 341.21,784.00 341.21,784.00
             341.21,784.00 340.09,773.00 340.09,773.00
             340.09,773.00 337.18,739.00 337.18,739.00
             337.18,739.00 335.83,720.00 335.83,720.00
             334.89,711.27 334.14,715.31 334.00,703.00
             334.00,703.00 332.00,684.00 332.00,684.00
             331.93,678.06 331.73,671.87 330.74,666.00
             330.74,666.00 329.13,659.00 329.13,659.00
             329.13,659.00 327.87,638.00 327.87,638.00
             326.95,630.19 325.18,635.44 325.00,620.00
             325.00,620.00 323.21,598.00 323.21,598.00
             323.21,598.00 323.88,587.00 323.88,587.00
             323.88,587.00 322.26,566.00 322.26,566.00
             321.68,562.36 319.50,560.52 319.71,557.00
             319.71,557.00 321.60,543.01 321.60,543.01
             322.68,540.08 324.84,538.82 325.93,536.72
             325.93,536.72 328.70,523.00 328.70,523.00
             329.85,514.64 326.15,515.27 326.09,502.00
             326.09,502.00 326.09,489.00 326.09,489.00
             326.09,489.00 328.83,465.00 328.83,465.00
             328.83,465.00 328.83,447.00 328.83,447.00
             328.83,447.00 326.65,435.00 326.65,435.00
             325.66,427.78 328.23,425.26 320.00,419.00
             322.06,414.38 321.06,412.82 321.00,408.00
             321.00,408.00 321.00,384.00 321.00,384.00
             321.00,384.00 325.00,354.00 325.00,354.00
             325.00,354.00 325.68,324.00 325.68,324.00
             326.63,319.12 329.88,318.59 330.87,313.00
             330.87,313.00 332.09,298.00 332.09,298.00
             332.09,298.00 334.00,289.00 334.00,289.00
             334.00,289.00 334.00,280.00 334.00,280.00
             334.00,280.00 337.74,262.00 337.74,262.00
             337.74,262.00 339.06,246.00 339.06,246.00
             339.06,246.00 340.67,238.00 340.67,238.00
             340.75,234.82 339.02,232.65 339.73,230.04
             340.81,225.99 347.52,223.09 350.19,219.54
             350.19,219.54 357.10,203.00 357.10,203.00
             357.10,203.00 365.24,189.83 365.24,189.83
             367.09,185.40 364.73,177.91 365.24,173.00
             365.38,168.35 367.16,167.29 367.62,164.00
             367.62,164.00 367.00,154.00 367.00,154.00
             367.00,154.00 367.99,140.00 367.99,140.00
             368.08,135.71 366.98,128.05 364.69,124.45
             364.69,124.45 358.75,117.98 358.75,117.98
             358.75,117.98 345.53,99.17 345.53,99.17
             343.39,96.62 340.45,94.79 338.59,91.99
             337.57,90.44 335.11,82.86 334.95,81.00
             334.95,81.00 338.09,62.42 338.09,62.42
             338.09,62.42 340.80,56.99 340.80,56.99
             340.80,56.99 342.45,51.00 342.45,51.00
             344.13,46.16 346.22,38.67 352.00,38.00
             352.00,38.00 349.00,22.00 349.00,22.00
             349.00,22.00 341.91,24.23 341.91,24.23
             341.91,24.23 320.00,47.00 320.00,47.00 Z" />
</svg>
